<?xml version="1.0" encoding="UTF-8"?>
<svg id="Layer_2" data-name="Layer 2" xmlns="http://www.w3.org/2000/svg" viewBox="0 0 1249.579138632871036 84.424066878804297">
  <g id="Layer_1-2" data-name="Layer 1">
    <text transform="translate(224.836951132871036 53.457270003804297) scale(.946979939937592 1)" style="fill: #ed2024; font-family: Poppins-Bold, Poppins; font-size: 51.099349975585938px; font-weight: 700;"><tspan x="0" y="0" xml:space="preserve">A/N DEDI ARIYANTO  - 082 901 023 484 536</tspan></text>
    <g id="layer1">
      <g id="g1470">
        <g id="g1458">
          <g id="g38">
            <g id="g1188">
              <g id="g140">
                <path id="path142" d="m106.499766707071103,29.878344832413859c.368362703826278-.368362703826278.803581273577947-.842908294898734,1.305655748321442-1.423636656014423.500763592265685-.580728517388707.975309144270796-1.266328883271854,1.423636734151842-2.058111901995289.448327589881046-.791783331265833.83111027445193-1.674018725623682,1.147036936826225-2.65063859610018.317237466719234-.975309066134287.475856356349141-2.017474154465162.475856356349141-3.125183835563803,0-2.161672633605122-.369673703508852-4.179147413155079-1.107709993641038-6.052422463395487-.739347250746505-1.871964870981174-1.873275206511607-3.50796620759138-3.403094671638428-4.906696330910563-1.529819621398019-1.396107264463353-3.441110810480495-2.492019706471183-5.736495175934579-3.283803037737016-2.29407387365336-.790473152008417-4.972241548764941-1.186364817642243-8.030568737045542-1.186364817642243h-20.177365653679772v55.386807986042186h22.155508801903125c3.216947015539517,0,6.024893696927393-.435219546447115,8.426461027764162-1.305656139000348,2.398945878421728-.870436592551414,4.391512718834747-2.069910703798087,5.973768577023293-3.599730012652799,1.582255545646149-1.529819308856531,2.755510444596439-3.310020374774467,3.521076126281514-5.340603197759265.764254564798648-2.030582822984798,1.147036936826225-4.206675554538378,1.147036936826225-6.528278194658924,0-3.112075792128962-.711818640549609-5.880694592702639-2.135454984022545-8.308479885663473-1.424945272559853-2.42516305918798-3.087165821464623-4.298438109428389-4.985348029485067-5.617202916948372m-9.796350955188245-14.537874062210904c.745901428734214.284465170336262,1.368579123080053.654138248759409,1.85492253926077,1.119508170360859,1.259774236469639,1.20864911656281,1.890316756876018,2.653260517330637,1.890316756876018,4.333832952126613,0,1.524576091482231-.263491050669472,2.78435032795096-.787850293150768,3.781944943179042-.52567067191012.998905419572111-1.051341343819331,1.760538063141212-1.575701211386331,2.284897618164905h-15.401755382875308v-12.17432193258901h9.573497339506503c1.79462053878251,0,3.272005173560501.221541561168124,4.446570876853912.65413824875759m-1.597986135394422,21.105480137683116c2.788282740981231,0,4.854260406663343.722305700383004,6.199243176306481,2.164294867377976,1.265017766385427,1.419704242985972,1.90211493359493,3.095033460409468,1.90211493359493,5.033853728502436,0,1.997810839142403-.722305387841516,3.703290431720234-2.166916788606613,5.12168449544879-1.445922205110037,1.418392813555329-3.821271573822742,2.128901274849341-7.131292573682913,2.128901274849341h-11.225230828577878v-14.448734366178542h12.422082080965993Z" style="fill: #02539c; stroke-width: 0px;"/>
              </g>
              <g id="g144">
                <path id="path146" d="m151.183070630278053,36.722555242760791c1.660909432016524-1.133927955765103,3.046529949190699-2.452692763283267,4.154239942830827-3.956294110015733,1.107709993641038-1.503601659273045,1.924400482688725-3.164511403832876,2.452692763285086-4.98403910039633.526981476253241-1.820839125992279.791783331265833-3.679694703369023.791783331265833-5.57918834082011,0-2.478910412864934-.410311763581376-4.759876243084364-1.22700162754245-6.844206419746115-.819312097733018-2.083019997404335-2.045002920932347-3.87633035692852-3.679694390826626-5.379931078574373-1.636002430508597-1.503600721644034-3.679694390826626-2.676856245681847-6.132387154110802-3.521076751367218-2.452692763284176-.842907826085138-5.288168211139237-1.26632825818524-8.505114601593959-1.26632825818524h-21.800257696684639v55.386807986042186h10.485884671730673v-20.571943389542866h5.846611179434149l14.460530667638523,20.571945889883864h12.290992582888066l-14.953429043164761-21.283761873819458c2.214108870395648-.579417556773478,4.152928982216508-1.436745715214784,5.81514937485008-2.571984553458606m-12.0668284754056-22.036217480543201c.659382716302389,0,1.282059160477729.043260918930173,1.874585854583529.117981142100689,1.869342637209229.281843561648202,3.396540337377701.949091104010222,4.573727649359171,2.009608703319827,1.601919173511305,1.445921580023423,2.402878447723197,3.218257819882638,2.402878447723197,5.318318898835059,0,1.052651523077657-.171727870693758,2.076464100431622-.512561690848088,3.074059340744498-.342144311955963.998904169400703-.879613160584086,1.878517017441482-1.615027842030031,2.638839169210769-.736725173244849.762943135370733-1.68188386422662,1.379066182913448-2.836785627112477,1.852300305490644-1.156213817401294.473234747661991-2.548388668834377.709197031863368-4.176525179383134.709197031863368h-11.103317898532623v-15.720304591564854h11.393026286240456Z" style="fill: #02539c; stroke-width: 0px;"/>
              </g>
              <g id="g148">
                <path id="path150" d="m164.02463858043302,5.191496420853582v.015730792412796c-.106182848177923-.002621799141707-.209743892331971-.015730792412796-.315926740509894-.015730792412796h-.089141141544133v55.386807986042186h10.691695291539872V5.191496420853582h-10.286627409485845Z" style="fill: #02539c; stroke-width: 0px;"/>
              </g>
            </g>
          </g>
          <path id="path4" d="m10.220017567360628,65.94107174322744c-1.291134186344607-.150460055225267-2.294489449194771-.455736263033032-3.49221764716458-1.062714316012716-3.114189837595404-1.577925258561663-5.449781943461858-4.299468093142423-6.330754247162986-7.376898803342556-.430170269819428-1.501996445567784-.406421621321897-.056529977813625-.389992624011938-23.75817007662954L.091450235932825,11.237118161989201c.107502349591414-1.491434229123115.334150120306731-2.463316500035944.93432129986104-4.004130724895731C2.107169563096249,4.458183582932179,3.876695237800959,2.511317238371703,6.488101452720002,1.222832403796929,7.956857833964932.498154259168587,9.360461276063688.133561729679059,11.076316211700941.030769897370192c.593193380207595-.035253471123724,10.271742926094703-.041052384340219,22.906727739328744-.013045669527855,24.182498701751683.053703416082499,22.184435016740281.013045669527855,23.697089196181878.483066815011625.695909804021539.216140853832258,1.982539589635053.825446515671501,2.769020022642508,1.311157655220086,2.7611172124316,1.705408345547767,4.760709176263845,4.480207172477094,5.357039549837282,7.434040846768767.117114419008431.580273391502487.123006336036269,1.729787911781386.123006336036269,23.358022442042056l-.122242196626758,23.525411704253202c-.390937743808536,2.485830962841646-1.548166553062401,4.651170797324085-3.569797906185158,6.679862899138243-1.583075658728376,1.588638291996176-3.044532497718137,2.46362567486176-4.984541696521774,2.984421873228712l-.705200130529192.189282861749234-22.906727739329654.009355680535009c-12.598647973408333.005271053758406-23.137859801843661-.017856731468783-23.420350076265095-.050737348636176l-.000321742909364-.000537913925655Zm9.559263362240927-6.775355189191032c.987670296019132-.336021507775513,2.208845508509512-1.16115884861938,3.206469725786519-2.166889479043675.783705400414874-.789897694610772,1.398475664481339-1.646716657562138,1.826152426752742-2.544527678059239.497796607581222-1.045015942379905.619596407706922-1.549043805212932.660839826901793-2.735518542205682.059904507937063-1.728076138957476-.190351148752598-3.168428653985757-.756719213892211-4.359865269909278-.680848214076832-1.431813759845681-1.575011977061877-2.486297867100802-5.66152899568624-6.677536547085765-4.405766420439249-4.51856150372987-5.673775335173559-5.869169426987355-6.627200120276939-7.05874093948114-.286190317879118-.356829853395539-.363609705445015-.502170300254875-.332762604009986-.621264820645592.146915855988482-.563187083484081,1.652732998605643-2.110063522888595,5.492453096815552-5.6433882255551,4.04153333810882-3.718885526812301,5.31402654464182-5.048994593476891,6.705222775798575-7.008584864655859.867177576462382-1.221259418642148,1.487980520079873-2.647632455618805,1.709198879198993-3.926653524149515.136057032796998-.785392037072597.13651953822955-2.261143812978844.002634270070303-3.053827851457754-.290393084632342-1.701527321703907-1.190589527168413-3.40010365766102-2.377016505446591-4.483165699073652-1.685611102156145-1.538481588768263-3.339570745603851-2.247944812846981-5.703556663222116-2.446236476058402-1.0137716895415-.084935100838265-5.168075917381429-.033079192868172-6.195783096684863.077484741594162-2.297284590719755.247204126284487-4.432149339007083,1.860224498132084-4.974607884194484,3.758796729272945-.108145835410141.378251521437051-.11852204423667,1.541590932352847-.140842958573558,15.700371530072516l.037302068553799,22.471698648856545c.066560564374413,7.999566850387055.033400935778445,7.487308150391982.552090723536821,8.297698103351649.354621012914322.552472793240668,1.102029791365567,1.344393949117148,1.624339186853831,1.72016201747283s1.022599510617511.609614836668698,1.678774065332618.785232422425906c.479356717088194.128261051286245.72243348511256.134474711223447,4.614738440071051.119253506632958l4.108858041892745-.016011736974178.550944514421644-.18848604532468Zm35.098933982483686.10403230204065c-.259525874264909-.485236066033394-2.146186076910453-2.460521358509141-6.710330444483589-7.025044025362149-5.204513301867337-5.205047445369928-18.736276039226141-19.141007253465432-18.759381201904944-19.320038330402895-.061271915301404-.470647035986985,2.340699774553286-3.007255565327796,5.39625196691668-5.699601487691325,1.740830228975028-1.533830141472208,4.251571131127093-3.964067448638161,5.779427663035676-5.594014513857474,3.037393826915832-3.240476443135776,3.809938770162262-4.377412826552245,4.084043620007833-6.010147492446777.133865159226843-.795177546027844.120372065965967-2.623408733608812-.022341023269291-3.200110276095074-.15869969004325-.639272997506851-.424117481335998-1.292365858418634-.760901871713031-1.874192664907241-.369199988494984-.636947902263273-1.733088290218802-2.023881039871412-2.4711866332309-2.512228963107191-1.040275261700117-.688343818417707-2.311702694846645-1.233205380960499-3.492519281143359-1.497021998555283-.573667607394782-.128108977489319-4.635531075588915-.209783917754976-5.962479269532196-.119879397136174l-.826376553768569.056073756422848.057591980776124.222203696779616c.033541698300724.122204492377932.377263670160573.701233643723754.768181305037615,1.286936446824257.390917634877042.585710343948449.833334244183789,1.324673371029348.983045241697255,1.642211000022144.793156598377209,1.683049726963873,1.162376695803687,3.780534484585587,1.090064976923713,6.191829177962063-.058778407754289,1.956335137838323-.340182799855938,3.106628879224445-1.178343187680184,4.816536598271341-1.165473471306541,2.377608462127682-2.732723400680698,4.218414016148017-6.196567345026779,7.27923977588398-2.020525361871478,1.785218182385506-3.643778666407343,3.410190800594137-4.398627749637853,4.403032862519467l-.529468175222064.696264223945036,3.987721836517267,4.224779121477695,5.866901516519647,6.304404634012826c1.642175809392029,1.979779638741093,2.460931077995156,3.746994671497305,2.778189695559377,5.996494156135668.150153394014524,1.063182477080773.134186902137117,3.092025395882956-.033400935777536,4.064367658611445-.254257334125214,1.49221722065522-.805121412819062,2.795612828185767-1.827560051981891,4.324315192041468-.323130425659656.482600539155101-.663655077357362,1.009611654266337-.757483353300813,1.170943100765726l-.170644395553609.293473521627675h11.684757348291896l11.620288112829257-.120800637576394.001146209114268-.000025136165277Zm4.622339616305908-23.973225048141103l-.278770122032256-23.092962841097687c-.565905559707062-3.746060234570905-2.085698409950055-5.317309327763724-5.501904294777887-5.688110489954852-.805423046796932-.087421067537434-5.01355888515991-.104968624180401-5.01355888515991-.021086728645969,0,.126238846827619.468638656419898.784612815963555,1.094428615132529,1.537551550669377.768342176492297.924209020764465,1.123586566293852,1.433983010869269,1.4397190836753,2.065803135516035.704275119664999,1.407125018786246.914634655593545,2.943899861964383.761223614622395,5.557523086617948-.140078819164046,2.385055050948722-.419613080605814,3.427427925600568-1.304466408150802,4.865765777019988-1.253429939153648,2.03739047163981-2.899024266957895,3.789535745198009-7.334270381468741,7.809348923308789-2.618384014264848,2.373095263737923-4.362029493697264,4.212667888874421-4.298264070847836,4.534706148175246.007902810210908.0557457294708,4.611621555636702,4.771196298417635,10.223662470076306,10.478406817393989l10.203674191832761,10.376864252475571.02228069647299-.323448398145047c.014820282763139-.177943937809687.003297864821434-8.323152869033947-.014961045285418-18.100491941391738l.001206535910569.00013070805835Z" style="fill: #02539c; stroke-width: 0px;"/>
        </g>
      </g>
    </g>
  </g>
</svg>