<?xml version="1.0" encoding="UTF-8"?>
<svg id="Layer_2" data-name="Layer 2" xmlns="http://www.w3.org/2000/svg" viewBox="0 0 1259.773137058019529 161.3388671875">
  <g id="Layer_1-2" data-name="Layer 1">
    <text transform="translate(220.854191745519529 48.5439453125) scale(.946977138519287 1)" style="fill: #ed2024; font-family: Poppins-Bold, Poppins; font-size: 51.099349975585938px; font-weight: 700;"><tspan x="0" y="0">A/N NOEROEL HIDAYAH - 604 117 3928</tspan></text>
    <text transform="translate(217.226262058019529 130.3720703125) scale(.946977138519287 1)" style="fill: #ed2024; font-family: Poppins-Bold, Poppins; font-size: 51.099349975585938px; font-weight: 700;"><tspan x="0" y="0" xml:space="preserve">A/N DEDI ARIYANTO  - 082 901-023 484 536</tspan></text>
    <g>
      <path id="path20" d="m28.664231314428434,50.568803345429842c0-2.496490951316446.026382990208731-9.16938485551691-.033516015126224-9.991547704612458.05221682951742-9.929463038906761-6.974919921514811-16.933799947362786-11.414353744014988-16.387762598289555-3.071932317556275.273885536027592-5.646440782600621,1.560779158287914-7.028781977442122,5.262887652399513-1.28120912005943,3.45020022222343-.135763459906229,8.039403074413713,4.123942920664376,9.116272244356878,4.554857920469658,1.156489292367041,7.214560468599302,2.118716220773422,9.139396704921637,3.476198442833265,2.358499216908967,1.661888601711325,4.283884604128616,4.837087117966803,4.33500313184868,8.527892104195416" style="fill: #0d61ae; stroke-width: 0px;"/>
      <path id="path22" d="m30.482434319737877,65.662263209789671c-8.03132298971741,0-16.285255427697848-2.032270993628117-24.528192974170452-6.051727034440773l-.202264520607059-.102187492806479-.096737754445712-.211755125650598C1.956168263481231,51.274634449850055,0,42.500553682306418,0,33.916218754999136c0-8.571380036844857,1.875919692392927-16.969965683221744,5.577739036778439-24.981150014520608l.101684565109281-.212888449839738.206114884714225-.106162323396347c7.625142414280162-3.711112379323822,15.827953356158105-5.590951810068873,24.388034451834756-5.590951810068873,7.974163802110525,0,16.49026830013463,2.092723877925891,24.6238313136746,6.062467280156852l.208861381301176.095431767502305.096187490402372.21683773965924c3.769971382739641,8.169864585144751,5.758022308471482,16.941693190121441,5.758022308471482,25.383774393261774,0,8.409297523192436-1.908901955107467,16.81521299047381-5.683272481802305,24.9799778073575l-.099482395796258.214591295174614-.209959683099441.099412316174494c-7.508620385563518,3.651790882269779-15.976361015511429,5.584710552619072-24.485326551850449,5.584710552619072m-23.765293251074581-7.15172775902829c8.007690206578445,3.869779481579826,15.993947201995979,5.824186948104398,23.765293251074581,5.824186948104398,8.24019327617043,0,16.435314621273392-1.85051827200914,23.730122362295333-5.358304934088665,3.623766634796084-7.911839488509941,5.460661549346696-16.054595019983026,5.460661549346696-24.192840127023373,0-8.171031836633119-1.917136250205658-16.670667458358366-5.543657544646521-24.599987509982384-7.893370347173914-3.812198378602261-16.136855560353979-5.833771600020555-23.855984779915161-5.833771600020555-8.287457358256688,0-16.230841994585717,1.80586461268831-23.625687219067913,5.368467493663047-3.549573008937841,7.764977751285187-5.356234012602727,15.901534880016698-5.356234012602727,24.197926934295538,0,8.312141944057657,1.877564176705164,16.815209940830755,5.425486393515712,24.594322795051994" style="fill: #0d61ae; stroke-width: 0px;"/>
      <path id="path24" d="m26.760826805076249,50.572740436668028c.014841916183286-3.200062269057526-1.723668904370243-6.029702500809435-3.995875736394737-7.550407803624694-2.015524796779573-1.343947899122213-4.721399061965712-2.227137187232074-9.086630724505994-3.364401519747844-1.349366909654236-.35460962981233-2.760839817580745-1.142345040498185-3.197803640326129-2.146370398424551-1.155891400764631,1.196555523727511-1.365851825959908,3.886717207944457-1.162486406220523,5.458809023046342.236347867979021,1.819417995904587,2.305738431163263,4.81790180349708,5.421639925412819,4.935380214554243,1.902850905879859.078464307101967,4.308620141641768-.420728975383099,5.462314938811687-.672535084173433,1.990244560941392-.441612941924177,5.139126277144896.839097525815305,5.640394185947116,3.335588477131751" style="fill: #0d61ae; stroke-width: 0px;"/>
      <path id="path26" d="m30.2735729384367,8.714274086891237c-5.283131453108581,0-9.846786177299691,3.579543275780452-9.830296808420826,9.773571303883728.016496789838129,5.208675644342293,4.093713647876939,7.997093829415462,5.548605839501761,9.98875575493912,2.198553822964641,3.00127728208281,3.388525231668609,6.553713791428891,3.512194014077977,11.989397359122449.096187490403281,4.32606731353917.091239195548042,8.59788754811234.112673890900624,10.111819590165396h1.166337141374242c-.020324520021859-1.583942734196171-.073105342354211-6.118919854932756-.012663122888625-10.245650195820417.079146002241032-5.437373070824833,1.311989770034415-8.854289471384618,3.511644863179754-11.85556522864681,1.467536020021726-1.991661925521839,5.5414609410509-4.78008011059319,5.550256260580682-9.98875575493912.019787242657003-6.194028028101457-4.541118758657831-9.773571303881909-9.819857004575169-9.773571303881909" style="fill: #0d61ae; stroke-width: 0px;"/>
      <path id="path28" d="m31.614691453170963,50.568803345429842c0-2.496490951316446-.027496133921886-9.16938485551691.03133128506488-9.991547704612458-.051664710234945-9.929463038906761,6.971072896840269-16.933799947362786,11.414353744015898-16.387762598289555,3.071932317555365.273885536027592,5.643695028106777,1.560779158287914,7.029885473910326,5.262887652399513,1.280109334071312,3.45020022222343.128061989598791,8.039403074413713-4.126690901446636,9.116272244356878-4.557058976638473,1.156489292367041-7.213465135185288,2.118716220773422-9.143246697979521,3.476198442833265-2.355753462415123,1.661888601711325-4.146481112484253,4.837087117966803-4.201440728112175,8.527892104195416" style="fill: #0d61ae; stroke-width: 0px;"/>
      <path id="path30" d="m33.516994692344269,50.572740436668028c-.016495305646458-3.200062269057526,1.72146933239037-6.029702500809435,3.987081901055717-7.550407803624694,2.02376948121946-1.343947899122213,4.732941620181919-2.227137187232074,9.09432774223842-3.364401519747844,1.352113406243916-.35460962981233,2.761935150994759-1.142345040498185,3.191201956006807-2.146370398424551,1.161391814902345,1.196555523727511,1.370805315486905,3.886717207944457,1.167435443173417,5.458809023046342-.24128799978098,1.819417995904587-2.305187053976624,4.81790180349708-5.415592586665298,4.935380214554243-1.902300270788146.078464307101967-4.320710366563617-.420728975383099-5.469456868877387-.672535084173433-1.982547543211695-.441612941924177-5.140224578942252.839097525815305-5.643695028108596,3.335588477131751" style="fill: #0d61ae; stroke-width: 0px;"/>
      <path id="path32" d="m35.146672709905033,60.903658696794082l-.676055218930742-5.068027558085305,1.631877589540636-.25410249120614c.397389337432287-.055918284235304.881069575558286.015187230335869,1.074542858161294.271034118282842.213809676158235.267075679534173.27921800078002.487900448360961.320442907171127.837981355876764.061558331563901.433122731226831-.060462998148068.934014665783252-.535347916743376,1.183597583625669v.015187230335869c.530402590271478,0,.850842529058355.391330400996594.943729177303794,1.052011516434504.013734709235905.139466348959104.053864282212089.476592366014302.013734709235905.757793999549904-.107731532811158.66915912755212-.496322582331231.884305458050221-1.152044376090998.97862486766644l-1.62087972964764.225899377519454Zm1.050359439932436-.90743396304606c.193473282603918-.028379993078488.38969231970168-.038950061421929.543041966094279-.13950294469214.234698188994116-.157550741714658.213260525258193-.494658460900609.180833906781118-.744784215490654-.081897693502469-.550021709803332-.221503725509137-.758934566643802-.789284197495363-.672556431687553l-.356713581941221.056461120977474.225899901080993,1.528603882448806.196222005480195-.028221411555933Zm-.341874634139458-2.341779428770678c.216009248136288-.035998005403599.508961958152213-.062676296767677.630983287864183-.273290855324376.063757903541045-.140600816765073.145655597041696-.252425186648907.091791314829607-.56526993303487-.066506626418231-.37100146978446-.186328384153057-.6008043924503-.644726902250113-.511608385842919l-.427070201418246.070611472137898.168188594192543,1.298782661915538" style="fill: #0d61ae; stroke-width: 0px;"/>
      <path id="path34" d="m42.215583518229323,57.855496177920941c.012645312587665.09431331032647.027496133921886.199343071943076.032978737760459.293613687243123.131911982654856.924420483726863-.032978737760459,1.689570226162687-1.04431284328075,1.900184784717567-1.495017312026903.295913119307443-1.781383179641125-.658424378400014-2.044657994054432-1.994455400017614l-.140158151289143-.722796277592352c-.206115626809151-1.278472028567194-.294609067861529-2.246325551343034,1.16303333083124-2.544477109822765.821710815973347-.154153437575587,1.364755750450058.181813714514647,1.590658619916212,1.022070105294915.035163467821803.125352593537173.079146002239213.249607315001413.095635371119897.37552104315364l-.894264039046902.189748889884868c-.103329420468981-.315662618037095-.240189697981805-.879767586817252-.642524361886899-.832345612570862-.722225451795566.089196006611019-.483686174891773,1.012457625372917-.409485499123548,1.39815228306361l.268772260169499,1.387435831777111c.080796423320862.419570110419954.241293936546754,1.089827110046826.866233596140773.960516077759166.507314505455724-.104468626997914.286359930846629-.916485308356641.241290968164321-1.249055156309623" style="fill: #0d61ae; stroke-width: 0px;"/>
      <path id="path36" d="m43.650686983006381,59.389168569770845l-.309445047279951-5.244806309292471,1.201509514346071-.376640262735236,2.518996730135768,4.561560873115013-.94593171766428.290777517724564-.596906248307278-1.159279717217942-1.050362408314868.324116232995948.1357649440979,1.31796492673493-.953625767013364.286306738675194Zm.729922469527082-2.451304366593831l.759051214230567-.225862781784599-1.008036231743972-2.122107425619106" style="fill: #0d61ae; stroke-width: 0px;"/>
      <path id="path38" d="m13.974573896351103,55.423977905789798c.375953157889853-1.236664450114404.712885433940755-2.146971178415697,2.147438263627009-1.742634043004728.76784801795111.220227038478697,1.243835690918786.568045109665036,1.221299725385506,1.484530418021677-.003710479045367.203880943176046-.069253865102837.411653232920798-.112126224192252.613253041899952l-.893165737247728-.253523058727296c.117073034854911-.505966543245449.191275194816626-.907452260915306-.41552764320204-1.099439589968824-.701338423149537-.197641370230485-.872272771836833.675929338667629-.969010897330008,1.053109388505618l-.36331081368462,1.375029877353882c-.115424097968571.408274226654612-.253933312367735,1.083050799641569.36331081368462,1.256990331681664.510063228332911.141161951381946.819511243994384-.373239908956748,1.004190691259282-1.124300293125998l-.62493965959311-.169962795420361.216007763944617-.795646188897081,1.469184956909885.485643711324883-.697492882665756,2.650061906762858-.676056703123322-.188608322785512.152248376211901-.560170927188665h-.019251449482908c-.31109249997462.457983434384005-.690892682539015.505966543247268-1.023425814631992.440454076957394-1.469184956910794-.408274226652793-1.315835310518196-1.394754978928177-.965165356848047-2.712738203534172" style="fill: #0d61ae; stroke-width: 0px;"/>
      <path id="path40" d="m19.442932463432044,57.662368281766248l-.442458300117323,2.155988977639936-.995946006820304-.221367605576233,1.06135433144027-5.034188701092717,1.697832096677303.394166570516973c.993749403225593.220227038480516,1.293852948458152.674794870858022,1.153147130463367,1.610505139065936-.080250240805981.537005826454333-.338027609465826,1.115785685273295-.967366413017771,1.068937044219638l-.006594263359148-.00879517516114c.532051527157819.191426194440282.577120489841036.466973786800736.484233841598325.943608847839641-.04010879429552.202679383184659-.316591429922482,1.433168302894046-.125871322769854,1.631907545193826l.006594263360057.150774431307582-1.030573681468923-.276127024842935c-.042872359086687-.3410417607829.10278472214668-.954300901972601.16049602903604-1.293701953931304.058261941977435-.300389997652019.151148590221965-.723918546818823-.145657081235186-.883146593087076-.23249564863363-.127072593115372-.318788033516284-.120839119459561-.581515181224859-.182972579477791l-.267675442561995-.055588922614334Zm.169839015271464-.779818533181242l.670559257368041.185772153265134c.407282958761243.06041955972978.633733494933949-.156410174611665.71398225154644-.6618033846662.072551738880065-.463619177689907-.021436179543343-.644871757591318-.386948049397688-.734671593843814l-.718927578019247-.149615566340799" style="fill: #0d61ae; stroke-width: 0px;"/>
      <path id="path42" d="m25.830838273775953,55.687656281188538l.984957052078244.117478411058983-.424324446923492,3.53888693818044c-.206115626808241,1.122025258220674-.628237533371248,1.612743578234586-1.829747047718229,1.459126878118695-1.222399511373624-.158691308806738-1.512607951087375-.73069485722408-1.438408759510821-1.861771460751697l.427070201417337-3.536050768658242.992649617235656.116898978576501-.425968931236639,3.456985681559672c-.045070446874888.375521043151821-.129716863253634.931715233722571.520510453136012.998929401723217.576568370558562.04518963436567.707385019802132-.347281333728461.772241225140533-.835163484223813" style="fill: #0d61ae; stroke-width: 0px;"/>
      <path id="path44" d="m27.901879258039116,60.996837539314583l.296256520559837-5.060714510223988,1.892409617843441.084164092944775c.894261070662651.045146939342885,1.128407140375202.795609593160407,1.100376697470892,1.511653957502858-.025845712842056.435361170400938-.158294972865406.921559917051127-.527653867394292,1.185280987470833-.302852268109746.224167179363576-.691998405294726.277224896917687-1.053108162808712.259201497057802l-.616696459346713-.035156303480107-.123116663125984,2.120948560652323-.968467683198469-.065378281924495Zm1.119614789229672-2.827380445070958l.501270877185561.028800844040234c.407282958761243.015187230335869.677156489112349-.150194998826919.71233183046661-.76457030995698.019787242657003-.59009404045355-.197317338894209-.690043094085922-.72497120628941-.71376323014556l-.397389337432287-.013991769637869" style="fill: #0d61ae; stroke-width: 0px;"/>
      <path id="path46" d="m161.371844572161535,13.605584649078082l-7.521265698152092,14.025087766811339c-2.838878612873486-2.36829303932609-6.305463418518229-4.111477543188812-10.728401935372858-4.111477543188812-10.466780510421813,0-14.718229590922419,8.015730207849629-14.718229590922419,13.662022234808319,0,4.191096140788432,2.671248074729192,10.374952079173454,11.984336756364428,10.374952079173454,3.909040137379634,0,9.466435359645402-2.794044779444448,11.065883362323802-4.065142767258294l-7.438815885367148,16.27142475432629c-3.545721902737569.72675471634102-4.710408623031981,1.177364109969858-7.711990257877005,1.272799689528256-16.668908571705288.511047251227865-23.404728191884715-10.009043515947269-23.399788802179501-20.758986000102595.011006765042112-14.21089880305226,12.309172870726798-31.493658913521358,32.69638514655162-31.493658913521358,1.249333136674068,0,2.777326218077178.44384451939186,4.083818542357221.935683583817081l1.32023000189929-1.734714115860697" style="fill: #0d61ae; stroke-width: 0px;"/>
      <path id="path48" d="m192.40611320914013,8.423463404282302l2.129850592949879,50.975323744702109h-15.850489692739757l-.009356343961372-8.742483399366392h-10.808108962048209l-3.557262976760285,8.742483399366392h-17.189966691546033l17.97155387130897-36.400762822911929-4.052484288909909-.027105241617392,7.699891127803312-14.547451486911086,23.666373363903404-.000004193261702Zm-13.832760871408027,15.59437886451451l-6.110891834117865,14.826940744973399h6.295014709525276" style="fill: #0d61ae; stroke-width: 0px;"/>
      <path id="path50" d="m102.896832044584698,8.423463404282302c7.849402654672303.045172861322499,12.284986484115507,4.4226171570117,12.284986484115507,10.745985189023486,0,5.829252407860622-4.677982004553996,10.989351787458872-9.81326125702526,13.657491987685717,5.286987382934058,1.996699938477832,5.744284630851325,6.898201650659757,5.744284630851325,10.365934279954672,0,8.377675757858015-8.182479000899548,16.205912288038235-18.81854640731035,16.205912288038235h-23.195866810582629l9.048154540991163-35.893692308305617-3.716659219806388-.02202300881072,7.597660009130777-15.059605759146507s14.486286061571263-.045176673376773,20.869248029635855,0m-7.700989429601577,20.667485986961765c1.62363438929242,0,4.490552350219332-.422372733850352,5.207274419493842-3.650694535019284.785434204437479-3.504410705456394-1.905048993666242-3.598727065425919-3.195601099964733-3.598727065425919l-4.611472409750604-.020751306996317-1.608240353825749,7.270343687543573,4.208039444047245-.000170780102053Zm-6.519816308809823,9.007897022569523l-2.123260782164834,8.37767270821314h5.429885351949451c2.136446340502516,0,5.047890049981106-1.08928427329738,5.761317213863549-3.815575097636611.704640749499958-2.734207701840205-1.330678710893153-4.562094560931655-3.459431002046585-4.562094560931655" style="fill: #0d61ae; stroke-width: 0px;"/>
    </g>
    <g id="layer1">
      <g id="g1470">
        <g id="g1458">
          <g id="g38">
            <g id="g1188">
              <g id="g140">
                <path id="path142" d="m107.791421382219596,106.793145141109562c.368362703826278-.368362703826278.803581273577947-.842908294898734,1.305655748321442-1.423636656014423.500763592265685-.580728517388707.975309144270796-1.266328883271854,1.423636734151842-2.058111901995289.448327589881046-.791783331265833.83111027445193-1.674018725623682,1.147036936826225-2.65063859610018.317237466719234-.975309066134287.475856356349141-2.017474154465162.475856356349141-3.125183835563803,0-2.161672633605122-.369673703508852-4.179147413155079-1.107709993641038-6.052422463395487-.739347250746505-1.871964870981174-1.873275206511607-3.50796620759138-3.403094671638428-4.906696330910563-1.529819621398019-1.396107264463353-3.441110810480495-2.492019706471183-5.736495175934579-3.283803037737016-2.29407387365336-.790473152008417-4.972241548764941-1.186364817642243-8.030568737045542-1.186364817642243h-20.177365653679772v55.386807986042186h22.155508801903125c3.216947015539517,0,6.024893696927393-.435219546447115,8.426461027764162-1.305656139000348,2.398945878421728-.870436592551414,4.391512718834747-2.069910703798087,5.973768577023293-3.599730012652799,1.582255545646149-1.529819308856531,2.755510444596439-3.310020374774467,3.521076126281514-5.340603197759265.764254564798648-2.030582822984798,1.147036936826225-4.206675554538378,1.147036936826225-6.528278194658924,0-3.112075792128962-.711818640549609-5.880694592702639-2.135454984022545-8.308479885663473-1.424945272559853-2.42516305918798-3.087165821464623-4.298438109428389-4.985348029485067-5.617202916948372m-9.796350955188245-14.537874062210904c.745901428734214.284465170336262,1.368579123080053.654138248759409,1.85492253926077,1.119508170360859,1.259774236469639,1.20864911656281,1.890316756876018,2.653260517330637,1.890316756876018,4.333832952126613,0,1.524576091482231-.263491050669472,2.78435032795096-.787850293150768,3.781944943179042-.52567067191012.998905419572111-1.051341343819331,1.760538063141212-1.575701211386331,2.284897618164905h-15.401755382875308v-12.17432193258901h9.573497339506503c1.79462053878251,0,3.272005173560501.221541561168124,4.446570876853912.65413824875759m-1.597986135394422,21.105480137683116c2.788282740981231,0,4.854260406663343.722305700383004,6.199243176306481,2.164294867377976,1.265017766385427,1.419704242985972,1.90211493359493,3.095033460409468,1.90211493359493,5.033853728502436,0,1.997810839142403-.722305387841516,3.703290431720234-2.166916788606613,5.12168449544879-1.445922205110037,1.418392813555329-3.821271573822742,2.128901274849341-7.131292573682913,2.128901274849341h-11.225230828577878v-14.448734366178542h12.422082080965993Z" style="fill: #02539c; stroke-width: 0px;"/>
              </g>
              <g id="g144">
                <path id="path146" d="m152.474725305426546,113.637355551456494c1.660909432017434-1.133927955765103,3.046529949190699-2.452692763283267,4.154239942830827-3.956294110015733,1.107709993641038-1.503601659273045,1.924400482688725-3.164511403832876,2.452692763285086-4.98403910039633.526981476253241-1.820839125992279.791783331265833-3.679694703369023.791783331265833-5.57918834082011,0-2.478910412864934-.410311763581376-4.759876243084364-1.22700162754245-6.844206419746115-.819312097733018-2.083019997404335-2.045002920932347-3.87633035692852-3.679694390826626-5.379931078574373-1.636002430508597-1.503600721644034-3.679694390826626-2.676856245681847-6.132387154110802-3.521076751367218-2.452692763284176-.842907826085138-5.288168211139237-1.26632825818524-8.505114601593959-1.26632825818524h-21.800257696684639v55.386807986042186h10.485884671730673v-20.571943389542866h5.846611179434149l14.460530667638523,20.571945889883864h12.290992582888066l-14.953429043164761-21.283761873819458c2.214108870395648-.579417556773478,4.152928982216508-1.436745715214784,5.81514937485008-2.571984553458606m-12.0668284754056-22.036217480543201c.659382716302389,0,1.282059160477729.043260918930173,1.874585854583529.117981142100689,1.869342637209229.281843561648202,3.396540337377701.949091104010222,4.573727649359171,2.009608703319827,1.601919173510396,1.445921580023423,2.402878447723197,3.218257819882638,2.402878447723197,5.318318898835059,0,1.052651523077657-.171727870692848,2.076464100431622-.512561690848088,3.074059340744498-.342144311955963.998904169400703-.879613160584086,1.878517017441482-1.615027842030031,2.638839169210769-.736725173244849.762943135370733-1.681883864225711,1.379066182913448-2.836785627112477,1.852300305490644-1.156213817401294.473234747661991-2.548388668834377.709197031863368-4.176525179383134.709197031863368h-11.103317898532623v-15.720304591564854h11.393026286240456Z" style="fill: #02539c; stroke-width: 0px;"/>
              </g>
              <g id="g148">
                <path id="path150" d="m165.316293255581513,82.106296729549285v.015730792412796c-.106182848177923-.002621799141707-.209743892331971-.015730792412796-.315926740509894-.015730792412796h-.089141141544133v55.386807986042186h10.691695291539872v-55.386807986042186h-10.286627409485845Z" style="fill: #02539c; stroke-width: 0px;"/>
              </g>
            </g>
          </g>
          <path id="path4" d="m11.511672242509121,142.855872051923143c-1.291134186344607-.150460055225267-2.294489449194771-.455736263033032-3.49221764716458-1.062714316012716-3.114189837595404-1.577925258561663-5.449781943461858-4.299468093142423-6.330754247162986-7.376898803342556-.430170269819428-1.501996445567784-.406421621321897-.056529977813625-.389992624011938-23.75817007662954l.084397186911701-22.506170385253427c.107502349591414-1.491434229123115.334150120306731-2.463316500035944.93432129986104-4.004130724895731,1.081398027302384-2.774803854161291,2.850923702007094-4.721670198721768,5.462329916926137-6.010155033296542,1.46875638124493-.724678144628342,2.872359823343686-1.08927067411787,4.588214758980939-1.192062506426737.593193380207595-.035253471123724,10.271742926094703-.041052384340219,22.906727739328744-.013045669527855,24.182498701751683.053703416082499,22.184435016740281.013045669527855,23.697089196181878.483066815011625.695909804021539.216140853832258,1.982539589635053.825446515671501,2.769020022642508,1.311157655220086,2.7611172124316,1.705408345547767,4.760709176263845,4.480207172477094,5.357039549837282,7.434040846768767.117114419008431.580273391502487.123006336036269,1.729787911781386.123006336036269,23.358022442042056l-.122242196626758,23.525411704253202c-.390937743808536,2.485830962841646-1.548166553062401,4.651170797324085-3.569797906185158,6.679862899138243-1.583075658728376,1.588638291996176-3.044532497718137,2.46362567486176-4.984541696521774,2.984421873228712l-.705200130529192.189282861749234-22.906727739329654.009355680535009c-12.598647973408333.005271053758406-23.137859801843661-.017856731468783-23.420350076265095-.050737348636176l-.000321742909364-.000537913925655Zm9.559263362240927-6.775355189191032c.987670296019132-.336021507775513,2.208845508509512-1.16115884861938,3.206469725786519-2.166889479043675.783705400414874-.789897694610772,1.398475664481339-1.646716657562138,1.826152426752742-2.544527678059239.497796607581222-1.045015942379905.619596407706922-1.549043805212932.660839826901793-2.735518542205682.059904507937063-1.728076138957476-.190351148752598-3.168428653985757-.756719213892211-4.359865269909278-.680848214076832-1.431813759845681-1.575011977061877-2.486297867100802-5.66152899568624-6.677536547085765-4.405766420439249-4.51856150372987-5.673775335173559-5.869169426987355-6.627200120276939-7.05874093948114-.286190317879118-.356829853395539-.363609705445015-.502170300254875-.332762604009986-.621264820645592.146915855988482-.563187083484081,1.652732998605643-2.110063522888595,5.492453096815552-5.6433882255551,4.04153333810882-3.718885526812301,5.31402654464182-5.048994593476891,6.705222775798575-7.008584864655859.867177576462382-1.221259418642148,1.487980520079873-2.647632455618805,1.709198879198993-3.926653524149515.136057032796998-.785392037072597.13651953822955-2.261143812978844.002634270070303-3.053827851457754-.290393084632342-1.701527321703907-1.190589527168413-3.40010365766102-2.377016505446591-4.483165699073652-1.685611102156145-1.538481588768263-3.339570745603851-2.247944812846981-5.703556663222116-2.446236476058402-1.0137716895415-.084935100838265-5.168075917381429-.033079192868172-6.195783096684863.077484741594162-2.297284590719755.247204126284487-4.432149339007083,1.860224498132084-4.974607884194484,3.758796729272945-.108145835410141.378251521437051-.11852204423667,1.541590932352847-.140842958573558,15.700371530072516l.037302068553799,22.471698648856545c.066560564374413,7.999566850387055.033400935778445,7.487308150391982.552090723536821,8.297698103351649.354621012914322.552472793240668,1.102029791365567,1.344393949117148,1.624339186853831,1.72016201747283s1.022599510617511.609614836668698,1.678774065332618.785232422425906c.479356717088194.128261051286245.72243348511256.134474711223447,4.614738440071051.119253506632958l4.108858041892745-.016011736974178.550944514421644-.18848604532468Zm35.098933982483686.10403230204065c-.259525874264909-.485236066033394-2.146186076910453-2.460521358509141-6.710330444483589-7.025044025362149-5.204513301867337-5.205047445369928-18.736276039226141-19.141007253465432-18.759381201904944-19.320038330402895-.061271915301404-.470647035986985,2.340699774553286-3.007255565327796,5.39625196691668-5.699601487691325,1.740830228975028-1.533830141472208,4.251571131127093-3.964067448638161,5.779427663035676-5.594014513857474,3.037393826915832-3.240476443135776,3.809938770162262-4.377412826552245,4.084043620007833-6.010147492446777.133865159226843-.795177546027844.120372065965967-2.623408733608812-.022341023269291-3.200110276095074-.15869969004325-.639272997506851-.424117481335998-1.292365858418634-.760901871713031-1.874192664907241-.369199988494984-.636947902263273-1.733088290218802-2.023881039871412-2.4711866332309-2.512228963107191-1.040275261700117-.688343818417707-2.311702694846645-1.233205380960499-3.492519281143359-1.497021998555283-.573667607394782-.128108977489319-4.635531075588915-.209783917754976-5.962479269532196-.119879397136174l-.826376553768569.056073756422848.057591980776124.222203696779616c.033541698300724.122204492377932.377263670160573.701233643723754.768181305037615,1.286936446824257.390917634877042.585710343948449.833334244183789,1.324673371029348.983045241697255,1.642211000022144.793156598377209,1.683049726963873,1.162376695803687,3.780534484585587,1.090064976923713,6.191829177962063-.058778407754289,1.956335137838323-.340182799855938,3.106628879224445-1.178343187680184,4.816536598271341-1.165473471306541,2.377608462127682-2.732723400680698,4.218414016148017-6.196567345026779,7.27923977588398-2.020525361871478,1.785218182385506-3.643778666407343,3.410190800594137-4.398627749637853,4.403032862519467l-.529468175222064.696264223945036,3.987721836517267,4.224779121477695,5.866901516519647,6.304404634012826c1.642175809392029,1.979779638741093,2.460931077995156,3.746994671497305,2.778189695559377,5.996494156135668.150153394014524,1.063182477080773.134186902137117,3.092025395882956-.033400935777536,4.064367658611445-.254257334125214,1.49221722065522-.805121412819062,2.795612828185767-1.827560051981891,4.324315192041468-.323130425659656.482600539155101-.663655077357362,1.009611654266337-.757483353300813,1.170943100765726l-.170644395553609.293473521627675h11.684757348291896l11.620288112829257-.120800637576394.001146209114268-.000025136165277Zm4.622339616305908-23.973225048141103l-.278770122032256-23.092962841097687c-.565905559707062-3.746060234570905-2.085698409950055-5.317309327763724-5.501904294777887-5.688110489954852-.805423046796932-.087421067537434-5.01355888515991-.104968624180401-5.01355888515991-.021086728645969,0,.126238846827619.468638656419898.784612815963555,1.094428615132529,1.537551550669377.768342176492297.924209020764465,1.123586566293852,1.433983010869269,1.4397190836753,2.065803135516035.704275119664999,1.407125018786246.914634655593545,2.943899861964383.761223614622395,5.557523086617948-.140078819164046,2.385055050948722-.419613080605814,3.427427925600568-1.304466408150802,4.865765777019988-1.253429939153648,2.03739047163981-2.899024266957895,3.789535745198009-7.334270381468741,7.809348923308789-2.618384014264848,2.373095263737923-4.362029493697264,4.212667888874421-4.298264070847836,4.534706148175246.007902810210908.0557457294708,4.611621555636702,4.771196298417635,10.223662470076306,10.478406817393989l10.203674191832761,10.376864252475571.02228069647299-.323448398145047c.014820282763139-.177943937809687.003297864821434-8.323152869033947-.014961045285418-18.100491941391738l.001206535910569.00013070805835Z" style="fill: #02539c; stroke-width: 0px;"/>
        </g>
      </g>
    </g>
  </g>
</svg>